<?xml version="1.0" standalone="no"?>
<!DOCTYPE svg PUBLIC "-//W3C//DTD SVG 20010904//EN"
 "http://www.w3.org/TR/2001/REC-SVG-20010904/DTD/svg10.dtd">
<svg version="1.0" xmlns="http://www.w3.org/2000/svg"
 width="751.000000pt" height="751.000000pt" viewBox="0 0 751.000000 751.000000"
 preserveAspectRatio="xMidYMid meet">
<metadata>
Created by potrace 1.14, written by Peter Selinger 2001-2017
</metadata>
<g transform="translate(0.000000,751.000000) scale(0.100000,-0.100000)"
fill="#000000" stroke="none">
<path d="M5283 6698 c-25 -40 -90 -144 -143 -230 l-97 -158 -128 -90 c-70 -50
-180 -133 -244 -184 -111 -89 -137 -111 -276 -235 -246 -220 -443 -498 -748
-1055 -107 -195 -480 -932 -590 -1166 -29 -63 -62 -132 -72 -153 -22 -47 -24
-48 -165 -85 -63 -17 -242 -65 -398 -106 -156 -42 -290 -76 -298 -76 -8 0 -14
-4 -14 -10 0 -5 -31 -62 -69 -127 -115 -200 -138 -246 -145 -298 -4 -27 -20
-124 -36 -215 -27 -153 -34 -197 -46 -275 -3 -16 -11 -64 -19 -105 -7 -41 -18
-104 -24 -140 -6 -36 -13 -74 -15 -85 -4 -24 -18 -119 -18 -122 1 -2 -3 -16
-8 -33 -5 -16 -7 -30 -4 -30 4 0 17 26 99 205 15 33 69 150 120 260 51 110
119 256 150 325 32 69 61 128 64 132 6 7 503 108 508 104 2 -2 -22 -59 -53
-127 -31 -68 -67 -152 -81 -186 l-24 -61 24 -39 c25 -39 116 -133 130 -133 19
0 0 -30 -81 -133 -63 -79 -95 -130 -109 -172 -24 -70 -281 -794 -354 -999 -27
-76 -48 -140 -46 -143 2 -2 24 22 48 54 23 32 49 64 56 73 7 8 163 207 347
442 203 260 340 444 350 470 9 24 31 86 50 138 22 62 38 94 47 93 8 -1 43 -9
78 -18 35 -9 86 -15 114 -13 l50 3 112 166 112 167 93 -239 c51 -131 90 -245
86 -254 -5 -14 -86 -142 -434 -683 -57 -90 -103 -165 -101 -167 2 -2 34 24 70
58 67 64 210 194 288 263 24 21 64 58 89 82 26 24 62 57 82 74 31 28 136 122
238 215 32 29 46 52 111 178 11 22 42 81 69 131 l48 91 -132 419 c-111 349
-131 421 -120 434 7 8 44 66 82 128 38 62 81 131 95 155 667 1086 949 1631
1048 2022 54 216 103 602 115 915 4 95 0 85 144 381 50 103 89 195 87 205 -2
11 -4 22 -4 27 -1 4 -15 7 -31 7 -26 0 -36 -9 -77 -72z"/>
</g>
</svg>
